<?xml version="1.0" encoding="UTF-8"?>
<svg id="svg" version="1.1" width="512" height="512" viewBox="0 0 512 512" xmlns="http://www.w3.org/2000/svg" xmlns:xlink="http://www.w3.org/1999/xlink"><path d="M368.907 70.426 C 368.650 70.684,351.363 70.975,330.492 71.073 C 299.581 71.219,292.142 71.516,290.373 72.675 C 289.093 73.514,281.946 86.503,272.972 104.299 C 250.357 149.147,233.852 181.344,232.776 182.709 C 231.216 184.688,232.886 189.906,238.468 200.500 C 241.367 206.000,247.916 218.600,253.023 228.500 C 258.130 238.400,264.191 250.100,266.493 254.500 C 268.795 258.900,270.902 263.175,271.175 264.000 C 271.609 265.308,272.012 265.319,274.320 264.090 C 275.776 263.314,277.221 261.880,277.531 260.902 C 277.841 259.925,280.269 255.123,282.927 250.232 C 285.585 245.341,292.614 231.926,298.547 220.420 C 304.481 208.914,311.987 194.550,315.229 188.500 C 318.471 182.450,328.238 163.325,336.933 146.000 C 345.629 128.675,356.401 107.623,360.872 99.219 C 365.342 90.814,369.000 83.562,369.000 83.103 C 369.000 82.645,369.956 81.054,371.125 79.568 C 372.851 77.374,373.083 76.282,372.360 73.761 C 371.527 70.854,369.976 69.357,368.907 70.426 M453.201 70.750 C 408.824 70.987,402.610 71.209,400.430 72.638 C 398.931 73.620,395.497 79.225,391.704 86.878 C 384.608 101.198,372.300 124.767,364.310 139.338 C 358.464 149.997,356.844 154.926,359.125 155.112 C 362.631 155.398,382.684 154.829,384.162 154.402 C 386.502 153.725,387.741 159.484,385.757 161.817 C 384.970 162.743,379.666 172.050,373.970 182.500 C 356.817 213.970,347.724 230.869,339.533 246.500 C 336.364 252.550,332.896 258.456,331.828 259.625 C 330.760 260.794,329.708 263.156,329.490 264.875 L 329.095 268.000 367.798 267.978 C 402.956 267.958,406.696 267.797,408.638 266.228 C 409.813 265.277,418.230 249.839,427.342 231.921 C 436.454 214.002,446.429 194.652,449.509 188.921 C 452.589 183.189,458.970 170.850,463.689 161.500 C 468.408 152.150,473.943 141.350,475.988 137.500 C 478.034 133.650,485.986 118.125,493.660 103.000 C 503.876 82.863,507.512 74.764,507.240 72.750 C 506.983 70.857,506.343 70.075,505.184 70.241 C 504.258 70.373,480.865 70.602,453.201 70.750 M153.007 160.250 C 140.164 185.463,126.599 211.633,125.905 212.537 C 125.467 213.108,115.242 233.133,103.183 257.037 C 91.124 280.942,79.400 304.171,77.129 308.657 C 74.858 313.143,73.000 317.305,73.000 317.907 C 73.000 318.508,72.663 319.002,72.250 319.004 C 71.838 319.006,70.633 321.143,69.574 323.754 C 68.514 326.364,67.389 328.725,67.074 329.000 C 66.758 329.275,65.309 331.975,63.854 335.000 C 57.958 347.256,50.084 363.148,48.742 365.500 C 45.853 370.562,35.000 392.939,35.000 393.832 C 35.000 394.383,34.648 394.983,34.219 395.167 C 33.297 395.560,25.000 412.492,25.000 413.979 C 25.000 414.541,24.656 415.000,24.236 415.000 C 23.433 415.000,20.000 422.299,20.000 424.007 C 20.000 424.553,19.649 425.000,19.220 425.000 C 18.791 425.000,17.567 427.250,16.500 430.000 C 15.433 432.750,14.209 435.000,13.780 435.000 C 13.351 435.000,13.000 435.857,13.000 436.904 C 13.000 437.951,10.975 442.744,8.500 447.555 C 6.025 452.365,4.000 456.913,4.000 457.661 C 4.000 458.791,11.469 458.977,48.180 458.760 L 92.360 458.500 95.214 453.643 C 96.783 450.972,104.053 437.022,111.368 422.643 C 118.684 408.264,129.617 387.050,135.665 375.500 C 141.713 363.950,148.650 350.348,151.081 345.272 C 155.276 336.512,157.077 334.311,159.051 335.531 C 159.529 335.827,163.744 343.664,168.416 352.947 C 173.088 362.230,178.787 373.347,181.080 377.650 C 183.373 381.954,193.540 402.018,203.673 422.237 L 222.095 459.000 266.798 458.994 L 311.500 458.987 313.191 456.015 C 314.122 454.380,322.842 437.395,332.570 418.271 C 342.298 399.147,353.964 376.300,358.496 367.500 C 385.231 315.581,393.600 298.371,393.268 296.000 L 392.917 293.500 355.708 293.773 C 330.906 293.955,317.554 294.424,315.662 295.181 C 313.215 296.159,310.360 301.279,294.912 332.398 C 285.061 352.243,277.000 369.057,277.000 369.762 C 277.000 371.008,272.350 373.738,271.633 372.912 C 271.436 372.686,269.104 367.775,266.450 362.000 C 261.408 351.027,200.286 229.136,191.985 213.500 C 189.357 208.550,181.528 193.294,174.586 179.598 C 163.361 157.449,160.142 152.145,157.855 152.032 C 157.500 152.014,155.318 155.713,153.007 160.250 " stroke="none" fill="#fe7a30" fill-rule="evenodd"/><path d="M368.907 70.426 C 368.650 70.684,351.363 70.975,330.492 71.073 C 299.581 71.219,292.142 71.516,290.373 72.675 C 289.093 73.514,281.946 86.503,272.972 104.299 C 250.357 149.147,233.852 181.344,232.776 182.709 C 231.216 184.688,232.886 189.906,238.468 200.500 C 241.367 206.000,247.916 218.600,253.023 228.500 C 258.130 238.400,264.191 250.100,266.493 254.500 C 268.795 258.900,270.902 263.175,271.175 264.000 C 271.609 265.308,272.012 265.319,274.320 264.090 C 275.776 263.314,277.221 261.880,277.531 260.902 C 277.841 259.925,280.269 255.123,282.927 250.232 C 285.585 245.341,292.614 231.926,298.547 220.420 C 304.481 208.914,311.987 194.550,315.229 188.500 C 318.471 182.450,328.238 163.325,336.933 146.000 C 345.629 128.675,356.401 107.623,360.872 99.219 C 365.342 90.814,369.000 83.562,369.000 83.103 C 369.000 82.645,369.956 81.054,371.125 79.568 C 372.851 77.374,373.083 76.282,372.360 73.761 C 371.527 70.854,369.976 69.357,368.907 70.426 M453.201 70.750 C 408.824 70.987,402.610 71.209,400.430 72.638 C 398.931 73.620,395.497 79.225,391.704 86.878 C 384.608 101.198,372.300 124.767,364.310 139.338 C 358.464 149.997,356.844 154.926,359.125 155.112 C 362.631 155.398,382.684 154.829,384.162 154.402 C 386.502 153.725,387.741 159.484,385.757 161.817 C 384.970 162.743,379.666 172.050,373.970 182.500 C 356.817 213.970,347.724 230.869,339.533 246.500 C 336.364 252.550,332.896 258.456,331.828 259.625 C 330.760 260.794,329.708 263.156,329.490 264.875 L 329.095 268.000 367.798 267.978 C 402.956 267.958,406.696 267.797,408.638 266.228 C 409.813 265.277,418.230 249.839,427.342 231.921 C 436.454 214.002,446.429 194.652,449.509 188.921 C 452.589 183.189,458.970 170.850,463.689 161.500 C 468.408 152.150,473.943 141.350,475.988 137.500 C 478.034 133.650,485.986 118.125,493.660 103.000 C 503.876 82.863,507.512 74.764,507.240 72.750 C 506.983 70.857,506.343 70.075,505.184 70.241 C 504.258 70.373,480.865 70.602,453.201 70.750 M153.007 160.250 C 140.164 185.463,126.599 211.633,125.905 212.537 C 125.467 213.108,115.242 233.133,103.183 257.037 C 91.124 280.942,79.400 304.171,77.129 308.657 C 74.858 313.143,73.000 317.305,73.000 317.907 C 73.000 318.508,72.663 319.002,72.250 319.004 C 71.838 319.006,70.633 321.143,69.574 323.754 C 68.514 326.364,67.389 328.725,67.074 329.000 C 66.758 329.275,65.309 331.975,63.854 335.000 C 57.958 347.256,50.084 363.148,48.742 365.500 C 45.853 370.562,35.000 392.939,35.000 393.832 C 35.000 394.383,34.648 394.983,34.219 395.167 C 33.297 395.560,25.000 412.492,25.000 413.979 C 25.000 414.541,24.656 415.000,24.236 415.000 C 23.433 415.000,20.000 422.299,20.000 424.007 C 20.000 424.553,19.649 425.000,19.220 425.000 C 18.791 425.000,17.567 427.250,16.500 430.000 C 15.433 432.750,14.209 435.000,13.780 435.000 C 13.351 435.000,13.000 435.857,13.000 436.904 C 13.000 437.951,10.975 442.744,8.500 447.555 C 6.025 452.365,4.000 456.913,4.000 457.661 C 4.000 458.791,11.469 458.977,48.180 458.760 L 92.360 458.500 95.214 453.643 C 96.783 450.972,104.053 437.022,111.368 422.643 C 118.684 408.264,129.617 387.050,135.665 375.500 C 141.713 363.950,148.650 350.348,151.081 345.272 C 155.276 336.512,157.077 334.311,159.051 335.531 C 159.529 335.827,163.744 343.664,168.416 352.947 C 173.088 362.230,178.787 373.347,181.080 377.650 C 183.373 381.954,193.540 402.018,203.673 422.237 L 222.095 459.000 266.798 458.994 L 311.500 458.987 313.191 456.015 C 314.122 454.380,322.842 437.395,332.570 418.271 C 342.298 399.147,353.964 376.300,358.496 367.500 C 385.231 315.581,393.600 298.371,393.268 296.000 L 392.917 293.500 355.708 293.773 C 330.906 293.955,317.554 294.424,315.662 295.181 C 313.215 296.159,310.360 301.279,294.912 332.398 C 285.061 352.243,277.000 369.057,277.000 369.762 C 277.000 371.008,272.350 373.738,271.633 372.912 C 271.436 372.686,269.104 367.775,266.450 362.000 C 261.408 351.027,200.286 229.136,191.985 213.500 C 189.357 208.550,181.528 193.294,174.586 179.598 C 163.361 157.449,160.142 152.145,157.855 152.032 C 157.500 152.014,155.318 155.713,153.007 160.250 " stroke="none" fill="#ff7933" fill-rule="evenodd"/><path d="M368.907 70.426 C 368.650 70.684,351.363 70.975,330.492 71.073 C 299.581 71.219,292.142 71.516,290.373 72.675 C 289.093 73.514,281.946 86.503,272.972 104.299 C 250.357 149.147,233.852 181.344,232.776 182.709 C 231.216 184.688,232.886 189.906,238.468 200.500 C 241.367 206.000,247.916 218.600,253.023 228.500 C 258.130 238.400,264.191 250.100,266.493 254.500 C 268.795 258.900,270.902 263.175,271.175 264.000 C 271.609 265.308,272.012 265.319,274.320 264.090 C 275.776 263.314,277.221 261.880,277.531 260.902 C 277.841 259.925,280.269 255.123,282.927 250.232 C 285.585 245.341,292.614 231.926,298.547 220.420 C 304.481 208.914,311.987 194.550,315.229 188.500 C 318.471 182.450,328.238 163.325,336.933 146.000 C 345.629 128.675,356.401 107.623,360.872 99.219 C 365.342 90.814,369.000 83.562,369.000 83.103 C 369.000 82.645,369.956 81.054,371.125 79.568 C 372.851 77.374,373.083 76.282,372.360 73.761 C 371.527 70.854,369.976 69.357,368.907 70.426 M453.201 70.750 C 408.824 70.987,402.610 71.209,400.430 72.638 C 398.931 73.620,395.497 79.225,391.704 86.878 C 384.608 101.198,372.300 124.767,364.310 139.338 C 358.464 149.997,356.844 154.926,359.125 155.112 C 362.631 155.398,382.684 154.829,384.162 154.402 C 386.502 153.725,387.741 159.484,385.757 161.817 C 384.970 162.743,379.666 172.050,373.970 182.500 C 356.817 213.970,347.724 230.869,339.533 246.500 C 336.364 252.550,332.896 258.456,331.828 259.625 C 330.760 260.794,329.708 263.156,329.490 264.875 L 329.095 268.000 367.798 267.978 C 402.956 267.958,406.696 267.797,408.638 266.228 C 409.813 265.277,418.230 249.839,427.342 231.921 C 436.454 214.002,446.429 194.652,449.509 188.921 C 452.589 183.189,458.970 170.850,463.689 161.500 C 468.408 152.150,473.943 141.350,475.988 137.500 C 478.034 133.650,485.986 118.125,493.660 103.000 C 503.876 82.863,507.512 74.764,507.240 72.750 C 506.983 70.857,506.343 70.075,505.184 70.241 C 504.258 70.373,480.865 70.602,453.201 70.750 M153.007 160.250 C 140.164 185.463,126.599 211.633,125.905 212.537 C 125.467 213.108,115.242 233.133,103.183 257.037 C 91.124 280.942,79.400 304.171,77.129 308.657 C 74.858 313.143,73.000 317.305,73.000 317.907 C 73.000 318.508,72.663 319.002,72.250 319.004 C 71.838 319.006,70.633 321.143,69.574 323.754 C 68.514 326.364,67.389 328.725,67.074 329.000 C 66.758 329.275,65.309 331.975,63.854 335.000 C 57.958 347.256,50.084 363.148,48.742 365.500 C 45.853 370.562,35.000 392.939,35.000 393.832 C 35.000 394.383,34.648 394.983,34.219 395.167 C 33.297 395.560,25.000 412.492,25.000 413.979 C 25.000 414.541,24.656 415.000,24.236 415.000 C 23.433 415.000,20.000 422.299,20.000 424.007 C 20.000 424.553,19.649 425.000,19.220 425.000 C 18.791 425.000,17.567 427.250,16.500 430.000 C 15.433 432.750,14.209 435.000,13.780 435.000 C 13.351 435.000,13.000 435.857,13.000 436.904 C 13.000 437.951,10.975 442.744,8.500 447.555 C 6.025 452.365,4.000 456.913,4.000 457.661 C 4.000 458.791,11.469 458.977,48.180 458.760 L 92.360 458.500 95.214 453.643 C 96.783 450.972,104.053 437.022,111.368 422.643 C 118.684 408.264,129.617 387.050,135.665 375.500 C 141.713 363.950,148.650 350.348,151.081 345.272 C 155.276 336.512,157.077 334.311,159.051 335.531 C 159.529 335.827,163.744 343.664,168.416 352.947 C 173.088 362.230,178.787 373.347,181.080 377.650 C 183.373 381.954,193.540 402.018,203.673 422.237 L 222.095 459.000 266.798 458.994 L 311.500 458.987 313.191 456.015 C 314.122 454.380,322.842 437.395,332.570 418.271 C 342.298 399.147,353.964 376.300,358.496 367.500 C 385.231 315.581,393.600 298.371,393.268 296.000 L 392.917 293.500 355.708 293.773 C 330.906 293.955,317.554 294.424,315.662 295.181 C 313.215 296.159,310.360 301.279,294.912 332.398 C 285.061 352.243,277.000 369.057,277.000 369.762 C 277.000 371.008,272.350 373.738,271.633 372.912 C 271.436 372.686,269.104 367.775,266.450 362.000 C 261.408 351.027,200.286 229.136,191.985 213.500 C 189.357 208.550,181.528 193.294,174.586 179.598 C 163.361 157.449,160.142 152.145,157.855 152.032 C 157.500 152.014,155.318 155.713,153.007 160.250 " stroke="none" fill="#fd7633" fill-rule="evenodd"/></svg>